HIERARCHY
ROOT ui
{
	 OFFSET 0 0 0
	 CHANNELS 3 XPosition YPosition Z Position
	 EndSite
	 {
	 OFFSET 0 -1 0
	 }
}
ROOT li
{
	 OFFSET 0 0 0
	 CHANNELS 3 XPosition YPosition Z Position
	 EndSite
	 {
	 OFFSET 0 -1 0
	 }
}
ROOT ul
{
	 OFFSET 0 0 0
	 CHANNELS 3 XPosition YPosition Z Position
	 EndSite
	 {
	 OFFSET 0 -1 0
	 }
}
ROOT ll
{
	 OFFSET 0 0 0
	 CHANNELS 3 XPosition YPosition Z Position
	 EndSite
	 {
	 OFFSET 0 -1 0
	 }
}
ROOT tt
{
	 OFFSET 0 0 0
	 CHANNELS 3 XPosition YPosition Z Position
	 EndSite
	 {
	 OFFSET 0 -1 0
	 }
}
ROOT tb
{
	 OFFSET 0 0 0
	 CHANNELS 3 XPosition YPosition Z Position
	 EndSite
	 {
	 OFFSET 0 -1 0
	 }
}
ROOT td
{
	 OFFSET 0 0 0
	 CHANNELS 3 XPosition YPosition Z Position
	 EndSite
	 {
	 OFFSET 0 -1 0
	 }
}
ROOT v
{
	 OFFSET 0 0 0
	 CHANNELS 3 XPosition YPosition Z Position
	 EndSite
	 {
	 OFFSET 0 -1 0
	 }
}
ROOT bn
{
	 OFFSET 0 0 0
	 CHANNELS 3 XPosition YPosition Z Position
	 EndSite
	 {
	 OFFSET 0 -1 0
	 }
}
MOTION
Frames: 29
Frame Time: 0.002
-1.4469999819993973E-5	0.0015899499654769898	0		0.6143860473632813	-2.5289697265625	0		-1.0664351806640624	0.04154970550537109	0		-0.53414990234375	-2.79945654296875	0		1.6926541748046875	-1.0498690185546875	0		3.181423583984375	-0.21095701599121094	0		4.84415087890625	-0.03759127044677734	0		5.87997265625	0.45098037719726564	0		-0.05929654693603516	5.9429013671875	0		
0.07789168548583984	0.005138110160827636	0		0.6219986572265624	-2.533834228515625	0		-1.0576072998046875	0.04205662155151367	0		-0.5691836547851562	-2.79089599609375	0		1.568139892578125	-1.0328123779296876	0		3.19985546875	-0.23415074157714844	0		4.83281689453125	-0.044626583099365236	0		5.8714287109375	0.4723529052734375	0		-0.05141985702514648	5.949740234375	0		
0.07486457824707031	0.007301814079284668	0		0.6208580932617187	-2.530503662109375	0		-1.0706072998046876	0.04602140045166016	0		-0.5352994384765625	-2.79163525390625	0		1.6892935791015624	-1.04048828125	0		3.194554931640625	-0.19686917114257813	0		4.83397607421875	-0.031915061950683596	0		5.8735341796875	0.47761181640625	0		-0.1929282989501953	5.92944189453125	0		
0.05607839202880859	0.01279451847076416	0		0.6288331909179687	-2.5293134765625	0		-1.080575439453125	0.04196876907348633	0		-0.5901151123046875	-2.78365576171875	0		1.544118408203125	-1.019097900390625	0		3.1772958984375	-0.21937571716308593	0		4.8260146484375	-0.03504969787597656	0		5.85558984375	0.4560513916015625	0		-0.08354889678955078	5.9404228515625	0		
-0.02079025650024414	0.0013796000480651857	0		0.6068751220703125	-2.535535400390625	0		-1.0153489379882812	0.03459118270874023	0		-0.5599459228515625	-2.78821826171875	0		1.6636187744140625	-1.0296273193359375	0		3.161966552734375	-0.20491732788085937	0		4.81037060546875	-0.03406375885009766	0		5.8449150390625	0.4288994445800781	0		-0.0910980682373047	5.93966162109375	0		
0.051809196472167966	-0.00172194504737854	0		0.6002416381835938	-2.53800537109375	0		-1.09569873046875	0.035940807342529295	0		-0.5994071044921875	-2.7854501953125	0		1.533726806640625	-1.0195633544921876	0		3.16640576171875	-0.21882394409179687	0		4.7950126953125	-0.03311091995239258	0		5.82618994140625	0.4418223876953125	0		-0.0982753677368164	5.9389423828125	0		
0.039998626708984374	0.01077036952972412	0		0.6000016479492187	-2.534548095703125	0		-1.0857183837890625	0.036714092254638675	0		-0.5907718505859375	-2.793496826171875	0		1.5320311279296874	-1.0168189697265626	0		3.16078076171875	-0.19854039001464843	0		4.80794140625	-0.03469058990478516	0		5.8260478515625	0.427899169921875	0		-0.23840008544921876	5.91862841796875	0		
0.048205734252929684	0.00396013593673706	0		0.5960056762695313	-2.534980712890625	0		-1.0932542724609375	0.04487533569335937	0		-0.59062841796875	-2.790322509765625	0		1.532744873046875	-1.0100869750976562	0		3.159888916015625	-0.21334588623046874	0		4.80251171875	-0.019966567993164062	0		5.81859375	0.45227493286132814	0		-0.24372364807128907	5.915951171875	0		
0.04085103988647461	4.798850119113922E-4	0		0.6323558349609375	-2.53506201171875	0		-1.02666455078125	0.03783458709716797	0		-0.574210693359375	-2.7903603515625	0		1.65049072265625	-1.0233389282226562	0		3.17486083984375	-0.20041928100585937	0		4.80100732421875	-0.031345617294311526	0		5.804767578125	0.44568020629882815	0		-0.11713011169433593	5.937072265625	0		
0.027094022750854492	0.009164310455322266	0		0.5771485595703125	-2.528526123046875	0		-1.10960693359375	0.03644010162353516	0		-0.6123944091796875	-2.7863955078125	0		1.5160928955078126	-1.0062264404296875	0		3.155846435546875	-0.20891256713867187	0		4.7902060546875	-0.024595365524291993	0		5.7953671875	0.4197698059082031	0		-0.12243328094482422	5.93655126953125	0		
0.03342185592651367	-4.3910500407218933E-4	0		0.6099698486328125	-2.541445556640625	0		-1.1131329345703125	0.03575762939453125	0		-0.571552001953125	-2.801705078125	0		1.512791748046875	-1.006342529296875	0		3.1434248046875	-0.2055247802734375	0		4.78359326171875	-0.0299542236328125	0		5.78922412109375	0.41093084716796874	0		-0.2605815124511719	5.91631103515625	0		
0.030289314270019532	-8.271250128746032E-4	0		0.5574761352539063	-2.532894287109375	0		-1.177214599609375	0.03915280151367188	0		-0.6029808959960937	-2.792733642578125	0		1.51878955078125	-1.0105879516601564	0		3.1481494140625	-0.21643208312988282	0		4.7825322265625	-0.025441816329956055	0		5.784046875	0.39849209594726565	0		-0.24874736022949218	5.92359912109375	0		
0.030575904846191406	0.0017804429531097412	0		0.6111401977539063	-2.535059814453125	0		-1.105879150390625	0.04438336181640625	0		-0.61304931640625	-2.781059814453125	0		1.512387451171875	-0.9996023559570313	0		3.156931396484375	-0.185405029296875	0		4.7897734375	-0.025103763580322267	0		5.7821044921875	0.40312518310546874	0		-0.28665603637695314	5.917763671875	0		
0.025112733840942383	-0.001470149040222168	0		0.5791017456054688	-2.5367802734375	0		-1.1174130859375	0.03704910278320313	0		-0.5841375122070313	-2.78896337890625	0		1.50706787109375	-1.0036162719726562	0		3.129193115234375	-0.20679754638671874	0		4.77736376953125	-0.024481576919555666	0		5.769630859375	0.3959646301269531	0		-0.13871113586425782	5.9349638671875	0		
0.023015830993652345	-0.0017296619415283203	0		0.6173775634765625	-2.536603271484375	0		-1.1195155029296875	0.03662652206420899	0		-0.6218158569335938	-2.78773193359375	0		1.503066162109375	-1.0066317138671874	0		3.142107421875	-0.20785482788085938	0		4.7732060546875	-0.028030189514160156	0		5.75443994140625	0.37497161865234374	0		-0.14165530395507814	5.93468115234375	0		
-0.069675537109375	0.006498310089111328	0		0.5639867553710938	-2.529921142578125	0		-1.1213348388671875	0.03626042556762695	0		-0.5893292236328125	-2.791576171875	0		1.62523583984375	-1.0166402587890624	0		3.129416015625	-0.2015060577392578	0		4.76450732421875	-0.020538492202758787	0		5.74604150390625	0.3795770263671875	0		-0.1442224578857422	5.93443896484375	0		
0.019634042739868164	-0.002136369943618774	0		0.6005377197265624	-2.540646240234375	0		-1.1188436279296874	0.03988400650024414	0		-0.6105994262695312	-2.792512939453125	0		1.43520068359375	-0.9886596069335938	0		3.14299560546875	-0.193583984375	0		4.7718935546875	-0.023338134765625	0		5.7449267578125	0.38035394287109375	0		-0.2788136596679687	5.91232666015625	0		
-0.06550206756591796	0.012030373573303223	0		0.5677015380859375	-2.5232421875	0		-1.1151519775390626	0.04254302597045898	0		-0.585575927734375	-2.786135986328125	0		1.6059229736328124	-0.9913818969726562	0		3.134490966796875	-0.20432582092285156	0		4.77054443359375	-0.02303522300720215	0		5.73392578125	0.37276754760742187	0		-0.2807317810058594	5.9121455078125	0		
0.017123708724975584	-0.0024133129119873046	0		0.6145833129882813	-2.53407177734375	0		-1.121361328125	0.03940599822998047	0		-0.6214593505859375	-2.78276171875	0		1.4809681396484375	-0.9824384765625	0		3.152548828125	-0.19149732971191405	0		4.76043505859375	-0.019635334014892578	0		5.73363623046875	0.3456433410644531	0		-0.1500091552734375	5.9339287109375	0		
-0.0608380241394043	-3.1414398550987246E-4	0		0.5618477783203125	-2.5283232421875	0		-1.12641259765625	0.03529327774047852	0		-0.5893446044921875	-2.788417724609375	0		1.5988135986328125	-0.998294921875	0		3.127484130859375	-0.19701641845703124	0		4.76430859375	-0.028499902725219725	0		5.72289599609375	0.3378467712402344	0		-0.298883544921875	5.90311181640625	0		
0.012248283386230468	-0.006548895835876465	0		0.5611511840820312	-2.528377197265625	0		-1.1272415771484374	0.0351520881652832	0		-0.6249769287109375	-2.784988037109375	0		1.4762235107421875	-0.9854020385742187	0		3.126667236328125	-0.19693789672851564	0		4.76757568359375	-0.02239969825744629	0		5.7151767578125	0.33848028564453125	0		-0.3000155334472656	5.90301318359375	0		
0.01463430404663086	-0.002664798974990845	0		0.5724620361328125	-2.5356103515625	0		-1.1128895263671874	0.03680701446533203	0		-0.608594970703125	-2.78834423828125	0		1.4786314697265626	-0.9824619140625	0		3.139857666015625	-0.20610372924804687	0		4.76179296875	-0.029208763122558594	0		5.71595703125	0.31273492431640626	0		-0.2847947692871094	5.91068359375	0		
0.022070701599121095	-0.0048478031158447265	0		0.5662136840820312	-2.521564208984375	0		-1.11934423828125	0.04181023406982422	0		-0.6168518676757813	-2.7752978515625	0		1.4801868896484376	-0.9785146484375	0		3.141733154296875	-0.18011564636230468	0		4.76435400390625	-0.02319138526916504	0		5.70725341796875	0.3495347900390625	0		-0.28548095703125	5.9106162109375	0		
0.013704867362976074	-0.0027775559425354006	0		0.5617796630859375	-2.526546142578125	0		-1.1247884521484375	0.038816394805908205	0		-0.5971765747070312	-2.773670654296875	0		1.4678062744140625	-0.9783589477539063	0		3.110094970703125	-0.19563780212402343	0		4.7618798828125	-0.02813681983947754	0		5.70456640625	0.30816494750976564	0		-0.2879270935058594	5.91358837890625	0		
0.01342685317993164	-0.0028266029357910155	0		0.559492431640625	-2.528559326171875	0		-1.1250667724609376	0.038757682800292965	0		-0.6344111938476562	-2.772153564453125	0		1.46753662109375	-0.9783956298828125	0		3.12480126953125	-0.19689205932617188	0		4.74674267578125	-0.01891501998901367	0		5.69013818359375	0.31388674926757815	0		-0.16909967041015625	5.9226982421875	0		
-0.06372386550903321	-6.842120289802552E-4	0		0.5593260498046875	-2.528603759765625	0		-1.1252423095703126	0.03870748519897461	0		-0.6237169799804687	-2.781370849609375	0		1.46736474609375	-0.9784366455078125	0		3.1325947265625	-0.19905044555664062	0		4.7563193359375	-0.035096874237060545	0		5.6942041015625	0.2998428039550781	0		-0.16929600524902344	5.9226513671875	0		
0.0033034400939941405	0.006236391067504883	0		0.5633167724609375	-2.523709716796875	0		-1.1143626708984375	0.036492794036865235	0		-0.619741455078125	-2.777477783203125	0		1.4703232421875	-0.9755261840820313	0		3.117832763671875	-0.17786282348632812	0		4.75341650390625	-0.023092004776000978	0		5.6899501953125	0.31377352905273437	0		-0.15522122192382812	5.9333896484375	0		
0.016197124481201173	-6.647999864071607E-6	0		0.5892548828125	-2.52715380859375	0		-1.0463211669921875	0.03939970397949219	0		-0.6177233276367188	-2.7755517578125	0		1.463419921875	-0.9684622192382812	0		3.13249462890625	-0.19913536071777344	0		4.75543505859375	-0.021166824340820314	0		5.68703369140625	0.3051555480957031	0		-0.336797607421875	5.89814501953125	0		
0.013206245422363282	-0.003003432035446167	0		0.5633598022460937	-2.523796142578125	0		-1.1202418212890626	0.04149823760986328	0		-0.6196984252929687	-2.777564208984375	0		1.5794150390625	-0.973295654296875	0		3.12584375	-0.1800724639892578	0		4.7503671875	-0.029131292343139648	0		5.679974609375	0.3105385437011719	0		-0.16934671020507813	5.9225205078125	0		
